<?xml version="1.0" encoding="UTF-8"?>
<!DOCTYPE svg PUBLIC "-//W3C//DTD SVG 1.1//EN" "http://www.w3.org/Graphics/SVG/1.1/DTD/svg11.dtd">
<!-- Creator: CorelDRAW -->
<svg xmlns="http://www.w3.org/2000/svg" xml:space="preserve" width="1.70666in" height="1.70666in" version="1.1" style="shape-rendering:geometricPrecision; text-rendering:geometricPrecision; image-rendering:optimizeQuality; fill-rule:evenodd; clip-rule:evenodd"
viewBox="0 0 1707 1707"
 xmlns:xlink="http://www.w3.org/1999/xlink">
 <defs>
  <style type="text/css">
   <![CDATA[
    .fil6 {fill:#5EAC24}
    .fil1 {fill:#7C858C}
    .fil0 {fill:#99A4AC}
    .fil2 {fill:#A7FFFF}
    .fil3 {fill:#C2C7D7}
    .fil5 {fill:#CF3535}
    .fil7 {fill:#FED9A8}
    .fil4 {fill:#FF4141}
    .fil9 {fill:#FF9A00}
    .fil8 {fill:#FFD300}
   ]]>
  </style>
 </defs>
 <g id="Layer_x0020_1">
  <metadata id="CorelCorpID_0Corel-Layer"/>
  <g id="_554000464">
   <g>
    <path class="fil0" d="M1207 1707l-763 0c-7,0 -14,-3 -19,-9 -5,-6 -7,-14 -5,-21l62 -276c2,-11 12,-20 23,-20 265,0 376,0 641,0 11,0 21,9 24,20l61 276c1,7 0,15 -4,21 -6,5 -13,9 -20,9z"/>
    <path class="fil1" d="M981 1606l-311 0c-14,0 -25,-11 -25,-25l0 -420c0,-14 11,-25 25,-25 14,0 25,11 25,25l262 0c0,-14 11,-25 24,-25 0,0 0,0 0,0 14,0 24,11 25,23l1 421c0,7 -2,12 -7,16 -7,7 -12,10 -19,10z"/>
    <path class="fil0" d="M1657 1186l-1607 0c-14,0 -25,-12 -25,-25l0 -1137c0,-13 11,-25 25,-25l1607 0c13,0 25,12 25,25l0 1137c-2,13 -12,25 -25,25z"/>
    <polygon class="fil2" points="1582,965 1582,99 125,99 125,962 "/>
    <path class="fil3" d="M1519 1098l-125 0c-13,0 -25,-11 -25,-25 0,-14 12,-25 25,-25l125 0c14,0 25,11 25,25 0,14 -12,25 -25,25z"/>
   </g>
   <path class="fil4" d="M1375 614l-355 0c-14,0 -25,-11 -25,-25l0 -354c0,-14 11,-25 25,-25l355 0c14,0 25,11 25,25l0 355c-1,13 -11,24 -25,24z"/>
   <path class="fil5" d="M1253 614l-233 0c-14,0 -25,-11 -25,-25l0 -232c8,-1 16,-1 25,-1 130,0 235,105 235,234 0,8 -1,16 -2,24z"/>
   <path class="fil6" d="M1020 799c-115,0 -208,-93 -208,-209 0,-115 93,-208 208,-208 115,0 208,93 208,208 0,116 -94,209 -208,209z"/>
   <path class="fil7" d="M566 549c-8,0 -15,-4 -19,-11l-287 1c-9,11 -24,13 -35,4 -11,-8 -13,-23 -4,-34l173 -222c4,-6 13,-10 20,-10 8,0 15,4 19,11l153 223c7,11 4,27 -7,34 -3,2 -9,4 -13,4z"/>
   <path class="fil8" d="M214 962l0 -438c0,-14 11,-25 25,-25l326 0c14,0 25,11 25,25l0 438 -376 0z"/>
   <polygon class="fil9" points="379,962 379,499 429,499 429,962 "/>
   <path class="fil9" d="M363 326c13,13 31,21 51,21 18,0 34,-7 47,-18l-28 -41c-4,-7 -11,-11 -19,-11 -7,0 -16,4 -20,10l-31 39z"/>
  </g>
 </g>
</svg>
